<mxfile host="app.diagrams.net" modified="2024-02-14T02:47:39.416Z" agent="Mozilla/5.0 (Windows NT 10.0; Win64; x64) AppleWebKit/537.36 (KHTML, like Gecko) Chrome/104.0.0.0 Safari/537.36" etag="Q-57ECDe-yNW2MjxKBYJ" version="23.1.3" type="github">
  <diagram name="Page-1" id="aLHNFxSEXMiA27XTwz6a">
    <mxGraphModel dx="1702" dy="484" grid="1" gridSize="10" guides="1" tooltips="1" connect="1" arrows="1" fold="1" page="1" pageScale="1" pageWidth="827" pageHeight="1169" math="0" shadow="0">
      <root>
        <mxCell id="0" />
        <mxCell id="1" parent="0" />
        <mxCell id="b66v83o73NyCU6Y2DovU-25" value="" style="rounded=1;whiteSpace=wrap;html=1;" vertex="1" parent="1">
          <mxGeometry x="-34" y="200" width="240" height="1595" as="geometry" />
        </mxCell>
        <mxCell id="b66v83o73NyCU6Y2DovU-1" value="SRC" style="swimlane;horizontal=0;whiteSpace=wrap;html=1;" vertex="1" parent="1">
          <mxGeometry x="280" y="1000" width="1400" height="200" as="geometry" />
        </mxCell>
        <mxCell id="b66v83o73NyCU6Y2DovU-2" value="Frontend" style="swimlane;horizontal=0;whiteSpace=wrap;html=1;startSize=23;" vertex="1" parent="1">
          <mxGeometry x="280" y="200" width="1400" height="200" as="geometry">
            <mxRectangle x="280" y="200" width="40" height="150" as="alternateBounds" />
          </mxGeometry>
        </mxCell>
        <mxCell id="b66v83o73NyCU6Y2DovU-3" value="Intermediate Layer" style="swimlane;horizontal=0;whiteSpace=wrap;html=1;" vertex="1" parent="1">
          <mxGeometry x="280" y="400" width="1400" height="200" as="geometry" />
        </mxCell>
        <mxCell id="b66v83o73NyCU6Y2DovU-4" value="BUS&amp;nbsp;" style="swimlane;horizontal=0;whiteSpace=wrap;html=1;" vertex="1" parent="1">
          <mxGeometry x="280" y="600" width="1400" height="200" as="geometry" />
        </mxCell>
        <mxCell id="b66v83o73NyCU6Y2DovU-5" value="Backend" style="swimlane;horizontal=0;whiteSpace=wrap;html=1;startSize=23;" vertex="1" parent="1">
          <mxGeometry x="280" y="800" width="1400" height="200" as="geometry" />
        </mxCell>
        <mxCell id="b66v83o73NyCU6Y2DovU-7" value="&lt;font style=&quot;font-size: 24px;&quot; face=&quot;Georgia&quot;&gt;Conventions&lt;/font&gt;" style="text;html=1;align=center;verticalAlign=middle;whiteSpace=wrap;rounded=0;" vertex="1" parent="1">
          <mxGeometry x="58" y="220" width="60" height="30" as="geometry" />
        </mxCell>
        <mxCell id="b66v83o73NyCU6Y2DovU-8" value="" style="whiteSpace=wrap;html=1;aspect=fixed;" vertex="1" parent="1">
          <mxGeometry x="40" y="280" width="80" height="80" as="geometry" />
        </mxCell>
        <mxCell id="b66v83o73NyCU6Y2DovU-9" value="" style="shape=process;whiteSpace=wrap;html=1;backgroundOutline=1;" vertex="1" parent="1">
          <mxGeometry x="20" y="380" width="120" height="60" as="geometry" />
        </mxCell>
        <mxCell id="b66v83o73NyCU6Y2DovU-10" value="" style="shape=process;whiteSpace=wrap;html=1;backgroundOutline=1;" vertex="1" parent="1">
          <mxGeometry x="20" y="460" width="120" height="60" as="geometry" />
        </mxCell>
        <mxCell id="b66v83o73NyCU6Y2DovU-11" value="" style="shape=process;whiteSpace=wrap;html=1;backgroundOutline=1;" vertex="1" parent="1">
          <mxGeometry x="20" y="540" width="120" height="60" as="geometry" />
        </mxCell>
        <mxCell id="b66v83o73NyCU6Y2DovU-12" value="Document / Process" style="shape=document;whiteSpace=wrap;html=1;boundedLbl=1;" vertex="1" parent="1">
          <mxGeometry x="20" y="890" width="120" height="80" as="geometry" />
        </mxCell>
        <mxCell id="b66v83o73NyCU6Y2DovU-13" value="Decision" style="rhombus;whiteSpace=wrap;html=1;" vertex="1" parent="1">
          <mxGeometry x="40" y="620" width="80" height="80" as="geometry" />
        </mxCell>
        <mxCell id="b66v83o73NyCU6Y2DovU-14" value="" style="shape=delay;whiteSpace=wrap;html=1;" vertex="1" parent="1">
          <mxGeometry x="20" y="810" width="140" height="50" as="geometry" />
        </mxCell>
        <mxCell id="b66v83o73NyCU6Y2DovU-15" value="" style="shape=display;whiteSpace=wrap;html=1;" vertex="1" parent="1">
          <mxGeometry x="20" y="730" width="120" height="50" as="geometry" />
        </mxCell>
        <mxCell id="b66v83o73NyCU6Y2DovU-16" value="Note" style="shape=note;size=20;whiteSpace=wrap;html=1;" vertex="1" parent="1">
          <mxGeometry x="30" y="1010" width="100" height="100" as="geometry" />
        </mxCell>
        <mxCell id="b66v83o73NyCU6Y2DovU-20" value="" style="ellipse;whiteSpace=wrap;html=1;aspect=fixed;" vertex="1" parent="1">
          <mxGeometry x="40" y="1150" width="80" height="80" as="geometry" />
        </mxCell>
        <mxCell id="b66v83o73NyCU6Y2DovU-21" value="" style="ellipse;whiteSpace=wrap;html=1;aspect=fixed;" vertex="1" parent="1">
          <mxGeometry x="40" y="1260" width="80" height="80" as="geometry" />
        </mxCell>
        <mxCell id="b66v83o73NyCU6Y2DovU-22" value="" style="ellipse;whiteSpace=wrap;html=1;aspect=fixed;" vertex="1" parent="1">
          <mxGeometry x="40" y="1370" width="80" height="80" as="geometry" />
        </mxCell>
        <mxCell id="b66v83o73NyCU6Y2DovU-23" value="" style="ellipse;whiteSpace=wrap;html=1;aspect=fixed;" vertex="1" parent="1">
          <mxGeometry x="40" y="1500" width="80" height="80" as="geometry" />
        </mxCell>
        <mxCell id="b66v83o73NyCU6Y2DovU-24" value="" style="ellipse;whiteSpace=wrap;html=1;aspect=fixed;" vertex="1" parent="1">
          <mxGeometry x="40" y="1620" width="80" height="80" as="geometry" />
        </mxCell>
        <mxCell id="b66v83o73NyCU6Y2DovU-26" value="Screen / View" style="text;html=1;align=center;verticalAlign=middle;whiteSpace=wrap;rounded=0;" vertex="1" parent="1">
          <mxGeometry x="50" y="300" width="60" height="30" as="geometry" />
        </mxCell>
        <mxCell id="b66v83o73NyCU6Y2DovU-27" value="Service BUS" style="text;html=1;align=center;verticalAlign=middle;whiteSpace=wrap;rounded=0;" vertex="1" parent="1">
          <mxGeometry x="50" y="395" width="60" height="30" as="geometry" />
        </mxCell>
        <mxCell id="b66v83o73NyCU6Y2DovU-28" value="Service SRC" style="text;html=1;align=center;verticalAlign=middle;whiteSpace=wrap;rounded=0;" vertex="1" parent="1">
          <mxGeometry x="50" y="475" width="60" height="30" as="geometry" />
        </mxCell>
      </root>
    </mxGraphModel>
  </diagram>
</mxfile>
